<svg width="12" height="10" viewBox="0 0 12 10" xmlns="http://www.w3.org/2000/svg" xmlns:xlink="http://www.w3.org/1999/xlink">
    <defs>
        <path id="a" d="M0 0h12v6.762H0z"/>
    </defs>
    <g fill="none" fill-rule="evenodd">
        <path d="M7.513 2.812H6.187c-.75 0-1.483.136-2.18.404A6.626 6.626 0 0 0 .921 5.653c.246-.43.543-.837.89-1.21l1.418-1.53L5.92 0l.058.06a6.656 6.656 0 0 1 1.534 2.752M2.87 2.7 1.532 4.142A7.155 7.155 0 0 0 0 6.734V1.977h.071c1.006 0 1.959.26 2.798.723" fill="#009330"/>
        <g transform="translate(0 3.238)">
            <mask id="b" fill="#fff">
                <use xlink:href="#a"/>
            </mask>
            <path d="M12 0v.085c0 3.524-2.527 6.407-5.735 6.662-.15.008-.3.015-.451.015H0v-.077c0-.147.007-.301.014-.448.165-2.72 1.84-4.993 4.124-5.858A5.691 5.691 0 0 1 6.186 0H12z" fill="#009330" mask="url(#b)"/>
        </g>
    </g>
</svg>
