<svg width="88" height="34" viewBox="0 0 88 34" xmlns="http://www.w3.org/2000/svg" xmlns:xlink="http://www.w3.org/1999/xlink">
    <defs>
        <filter x="-28.2%" y="-23.4%" width="156.4%" height="146.9%" filterUnits="objectBoundingBox" id="sjx8cene6a">
            <feOffset dy="1" in="SourceAlpha" result="shadowOffsetOuter1"/>
            <feGaussianBlur stdDeviation="1.5" in="shadowOffsetOuter1" result="shadowBlurOuter1"/>
            <feComposite in="shadowBlurOuter1" in2="SourceAlpha" operator="out" result="shadowBlurOuter1"/>
            <feColorMatrix values="0 0 0 0 1 0 0 0 0 1 0 0 0 0 1 0 0 0 1 0" in="shadowBlurOuter1" result="shadowMatrixOuter1"/>
            <feOffset in="SourceAlpha" result="shadowOffsetOuter2"/>
            <feGaussianBlur stdDeviation="2" in="shadowOffsetOuter2" result="shadowBlurOuter2"/>
            <feComposite in="shadowBlurOuter2" in2="SourceAlpha" operator="out" result="shadowBlurOuter2"/>
            <feColorMatrix values="0 0 0 0 0 0 0 0 0 0 0 0 0 0 0 0 0 0 0.15 0" in="shadowBlurOuter2" result="shadowMatrixOuter2"/>
            <feMerge>
                <feMergeNode in="shadowMatrixOuter1"/>
                <feMergeNode in="shadowMatrixOuter2"/>
            </feMerge>
        </filter>
        <filter x="-18.3%" y="-34.7%" width="136.6%" height="169.3%" filterUnits="objectBoundingBox" id="utmb46skgc">
            <feOffset in="SourceAlpha" result="shadowOffsetOuter1"/>
            <feGaussianBlur stdDeviation="1.5" in="shadowOffsetOuter1" result="shadowBlurOuter1"/>
            <feComposite in="shadowBlurOuter1" in2="SourceAlpha" operator="out" result="shadowBlurOuter1"/>
            <feColorMatrix values="0 0 0 0 1 0 0 0 0 1 0 0 0 0 1 0 0 0 1 0" in="shadowBlurOuter1" result="shadowMatrixOuter1"/>
            <feOffset in="SourceAlpha" result="shadowOffsetOuter2"/>
            <feGaussianBlur stdDeviation="2" in="shadowOffsetOuter2" result="shadowBlurOuter2"/>
            <feComposite in="shadowBlurOuter2" in2="SourceAlpha" operator="out" result="shadowBlurOuter2"/>
            <feColorMatrix values="0 0 0 0 0 0 0 0 0 0 0 0 0 0 0 0 0 0 0.15 0" in="shadowBlurOuter2" result="shadowMatrixOuter2"/>
            <feMerge>
                <feMergeNode in="shadowMatrixOuter1"/>
                <feMergeNode in="shadowMatrixOuter2"/>
            </feMerge>
        </filter>
        <path d="M.04 24.255c0 .455.038.89.116 1.345H15.08l1.252-1.266c.293-.297.547-.594.782-.89A17.061 17.061 0 0 0 20.79 8.289 16.735 16.735 0 0 0 16.33.16L16.196 0 8.82 7.458l-3.873 3.918A17.18 17.18 0 0 0 0 23.463c0 .258 0 .535.04.792z" id="txzfwhta2b"/>
        <path d="M0 25.6h15.882c.41 0 .821-.02 1.232-.04C25.896 24.927 32.8 17.528 32.8 8.507v-.218H16.916c-1.973 0-3.85.336-5.611.97C5.065 11.474.489 17.29.039 24.255.02 24.63 0 25.026 0 25.402v.198z" id="q18gq4zvvd"/>
    </defs>
    <g fill="none" fill-rule="evenodd">
        <path d="M51.2 9.064v20.535h17.114v-3.442c0-5.144-2.25-9.753-5.81-12.899a15.96 15.96 0 0 0-2.483-1.8 16.636 16.636 0 0 0-8.625-2.394H51.2z" fill-opacity=".75" fill="#FFF"/>
        <g transform="translate(51.2 4)">
            <use fill="#000" filter="url(#sjx8cene6a)" xlink:href="#txzfwhta2b"/>
            <use fill-opacity=".8" fill="#FFF" xlink:href="#txzfwhta2b"/>
        </g>
        <g transform="translate(51.2 4)">
            <use fill="#000" filter="url(#utmb46skgc)" xlink:href="#q18gq4zvvd"/>
            <use fill-opacity=".8" fill="#FFF" xlink:href="#q18gq4zvvd"/>
        </g>
        <g>
            <path d="M44.737 14.677v11.26c0 1.825-1.36 3.33-3.101 3.506v-11.26c0-1.825 1.364-3.33 3.101-3.506" fill="#F3AF31"/>
            <g fill="#FFF">
                <path d="M34.648 34h3.07v-3.14h-3.07zM23.165 23.372h3.07v-3.14h-3.07zM40.248 26.31v3.14h-5.81c-2.613 0-4.736-2.174-4.736-4.842V13.18c0-1.804 1.348-3.295 3.071-3.474v14.903c0 .938.748 1.702 1.665 1.702h5.81z"/>
                <path d="M30.565 29.446h-8.26a4.627 4.627 0 0 1-2.944-1.05l-.196-.162a4.56 4.56 0 0 1-3.116 1.233H0c0-.867.345-1.649.9-2.22a3.038 3.038 0 0 1 2.167-.916h1.124c.12-.01.24-.021.362-.021h1.285l.676.02h9.535c.852 0 1.565-.694 1.568-1.56a6.796 6.796 0 0 0-2.25-5.11l2.164-2.231c.338.313.655.652.945 1.011v.004a9.923 9.923 0 0 1 2.178 5.561c.02.2.027.409.027.613 0 .035.004.074.004.11 0 .077-.007.147-.01.221l.003.028c.169.772.851 1.333 1.626 1.333h6.249a6.302 6.302 0 0 0 2.012 3.136"/>
                <path d="M22.938 8.403c0 .942-.355 1.826-1.002 2.495L11.459 21.68c-1.11-1.378-1.038-3.43.22-4.722l10.474-10.78a3.53 3.53 0 0 1 .785 2.226"/>
            </g>
            <path d="M49.31 9.705c-.172 1.78-1.643 3.171-3.429 3.171h-8.819c.176-1.776 1.648-3.171 3.43-3.171h8.819z" fill="#F3AF31"/>
        </g>
    </g>
</svg>
